# Blender 3.6.7
# www.blender.org
mtllib turret.mtl
o Cube
v 0.562523 4.930768 -0.562523
v 0.562523 4.930768 0.562523
v 0.562523 7.854779 -0.562523
v 0.562523 7.854779 0.562523
v 1.800781 5.383973 -1.800780
v 0.638472 5.294712 1.800781
v 1.800781 7.042297 -1.800780
v 0.638472 7.131558 1.800781
v 1.800781 5.383973 0.353404
v 1.800781 7.042297 0.353404
v 0.170951 5.441102 3.926733
v 0.170951 6.985167 3.926733
v 0.638472 5.294712 3.926733
v 0.638472 7.131558 3.926733
v 0.170951 5.441102 3.060705
v 0.170951 6.985167 3.060705
v 1.800781 4.930768 -1.800780
v 1.800781 4.930768 1.800781
v 1.800781 7.495502 -1.800780
v 1.800781 7.495502 1.800781
v 2.100354 6.904153 -2.310647
v 2.100354 5.522117 -2.310647
v 2.100354 5.522117 -0.515364
v 2.100354 6.904153 -0.515364
v 0.000000 4.930768 -0.562523
v 0.000000 4.930768 0.562523
v 0.000000 7.854779 -0.562523
v 0.000000 7.854779 0.562523
v 0.000000 4.930768 -1.800780
v 0.000000 4.930768 1.800781
v 0.000000 7.495502 -1.800780
v 0.000000 7.495502 1.800781
v 0.000000 5.294712 1.800781
v 0.000000 7.131558 1.800781
v 0.000000 5.294712 3.926733
v 0.000000 7.131558 3.926733
v 0.000000 5.441102 3.926733
v 0.000000 6.985167 3.926733
v 0.000000 5.441102 3.060705
v 0.000000 6.985167 3.060705
v 0.000000 5.383973 -1.800780
v 0.000000 7.042297 -1.800780
v 0.000000 5.394220 -2.669280
v 0.000000 7.032050 -2.669280
v -0.562523 4.930768 -0.562523
v -0.562523 4.930768 0.562523
v -0.562523 7.854779 -0.562523
v -0.562523 7.854779 0.562523
v -1.800781 5.383973 -1.800780
v -0.638472 5.294712 1.800781
v -1.800781 7.042297 -1.800780
v -0.638472 7.131558 1.800781
v -1.800781 5.383973 0.353404
v -1.800781 7.042297 0.353404
v -0.170951 5.441102 3.926733
v -0.170951 6.985167 3.926733
v -0.638472 5.294712 3.926733
v -0.638472 7.131558 3.926733
v -0.170951 5.441102 3.060705
v -0.170951 6.985167 3.060705
v -1.800781 4.930768 -1.800780
v -1.800781 4.930768 1.800781
v -1.800781 7.495502 -1.800780
v -1.800781 7.495502 1.800781
v -2.100354 6.904153 -2.310647
v -2.100354 5.522117 -2.310647
v -2.100354 5.522117 -0.515364
v -2.100354 6.904153 -0.515364
vn 0.2787 0.9604 -0.0000
vn -0.0000 -1.0000 -0.0000
vn -0.0000 0.9604 -0.2787
vn 0.4188 0.9081 -0.0000
vn -0.0000 -0.0000 1.0000
vn -1.0000 -0.0000 -0.0000
vn 1.0000 -0.0000 -0.0000
vn -0.0000 1.0000 -0.0000
vn -0.0000 -0.0000 -1.0000
vn 0.9454 -0.0000 0.3260
vn 0.0416 0.9943 -0.0980
vn 0.4188 -0.9081 -0.0000
vn 0.1683 -0.0000 -0.9857
vn 0.0416 -0.9943 -0.0980
vn -0.0000 0.9604 0.2787
vn -0.2787 0.9604 -0.0000
vn -0.4188 0.9081 -0.0000
vn -0.9454 -0.0000 0.3260
vn -0.0416 0.9943 -0.0980
vn -0.4188 -0.9081 -0.0000
vn -0.1683 -0.0000 -0.9857
vn -0.0416 -0.9943 -0.0980
vt 0.693501 0.568501
vt 0.693501 0.681499
vt 0.750000 0.681499
vt 0.750000 0.568501
vt 0.693501 0.636088
vt 0.729968 0.681499
vt 0.744637 0.681499
vt 0.744636 0.681499
vt 0.750000 0.681499
vt 0.750000 0.681499
vt 0.693501 0.636088
s 0
f 3/1/1 4/2/1 20/2/1 19/1/1
f 26/3/2 2/2/2 18/2/2 30/3/2
f 27/4/3 3/1/3 19/1/3 31/4/3
f 7/1/4 10/5/4 24/5/4 21/1/4
f 2/2/2 1/1/2 17/1/2 18/2/2
f 34/3/5 8/6/5 20/2/5 32/3/5
f 8/6/5 6/6/5 18/2/5 20/2/5
f 11/7/6 12/8/6 16/8/6 15/7/6
f 6/6/7 8/6/7 14/6/7 13/6/7
f 33/9/2 6/6/2 13/6/2 35/9/2
f 38/3/5 12/8/5 14/6/5 36/3/5
f 12/8/5 11/7/5 13/6/5 14/6/5
f 39/10/5 15/7/5 16/8/5 40/3/5
f 37/10/8 11/7/8 15/7/8 39/10/8
f 41/4/9 5/1/9 17/1/9 29/4/9
f 5/1/7 9/11/7 18/2/7 17/1/7
f 10/5/7 7/1/7 19/1/7 20/2/7
f 9/11/7 10/5/7 20/2/7 18/2/7
f 23/11/7 22/1/7 21/1/7 24/5/7
f 10/5/10 9/11/10 23/11/10 24/5/10
f 42/4/11 7/1/11 21/1/11 44/4/11
f 9/11/12 5/1/12 22/1/12 23/11/12
f 22/1/13 43/4/13 44/4/13 21/1/13
f 5/1/14 41/4/14 43/4/14 22/1/14
f 12/8/2 38/3/2 40/3/2 16/8/2
f 11/7/5 37/10/5 35/9/5 13/6/5
f 8/6/8 34/3/8 36/3/8 14/6/8
f 7/1/9 42/4/9 31/4/9 19/1/9
f 6/6/5 33/9/5 30/3/5 18/2/5
f 4/2/15 28/3/15 32/3/15 20/2/15
f 3/1/8 27/4/8 28/3/8 4/2/8
f 1/1/2 25/4/2 29/4/2 17/1/2
f 47/1/16 63/1/16 64/2/16 48/2/16
f 26/3/2 30/3/2 62/2/2 46/2/2
f 27/4/3 31/4/3 63/1/3 47/1/3
f 51/1/17 65/1/17 68/5/17 54/5/17
f 46/2/2 62/2/2 61/1/2 45/1/2
f 34/3/5 32/3/5 64/2/5 52/6/5
f 52/6/5 64/2/5 62/2/5 50/6/5
f 55/7/7 59/7/7 60/8/7 56/8/7
f 50/6/6 57/6/6 58/6/6 52/6/6
f 33/9/2 35/9/2 57/6/2 50/6/2
f 38/3/5 36/3/5 58/6/5 56/8/5
f 56/8/5 58/6/5 57/6/5 55/7/5
f 39/10/5 40/3/5 60/8/5 59/7/5
f 37/10/8 39/10/8 59/7/8 55/7/8
f 41/4/9 29/4/9 61/1/9 49/1/9
f 49/1/6 61/1/6 62/2/6 53/11/6
f 54/5/6 64/2/6 63/1/6 51/1/6
f 53/11/6 62/2/6 64/2/6 54/5/6
f 67/11/6 68/5/6 65/1/6 66/1/6
f 54/5/18 68/5/18 67/11/18 53/11/18
f 42/4/19 44/4/19 65/1/19 51/1/19
f 53/11/20 67/11/20 66/1/20 49/1/20
f 66/1/21 65/1/21 44/4/21 43/4/21
f 49/1/22 66/1/22 43/4/22 41/4/22
f 56/8/2 60/8/2 40/3/2 38/3/2
f 55/7/5 57/6/5 35/9/5 37/10/5
f 52/6/8 58/6/8 36/3/8 34/3/8
f 51/1/9 63/1/9 31/4/9 42/4/9
f 50/6/5 62/2/5 30/3/5 33/9/5
f 48/2/15 64/2/15 32/3/15 28/3/15
f 47/1/8 48/2/8 28/3/8 27/4/8
f 45/1/2 61/1/2 29/4/2 25/4/2
o Cube.001
v 1.000000 -0.313121 1.000000
v 0.562523 0.313121 0.562523
v 1.000000 -0.313121 -1.000000
v 0.562523 0.313121 -0.562523
v 2.316473 -0.313121 -2.316473
v 2.316473 0.313121 -2.316473
v 2.316473 -0.313121 2.316473
v 2.316473 0.313121 2.316473
v 1.000000 0.313121 -1.000000
v 1.000000 0.313121 1.000000
v 0.562523 3.825315 -0.562523
v 0.562523 3.825315 0.562523
v 0.000000 -0.313121 -1.000000
v 0.000000 0.313121 -1.000000
v 0.000000 -0.313121 1.000000
v 0.000000 0.313121 1.000000
v 0.000000 -0.313121 -2.316473
v 0.000000 0.313121 -2.316473
v 0.000000 -0.313121 2.316473
v 0.000000 0.313121 2.316473
v 0.000000 0.313121 -0.562523
v 0.000000 0.313121 0.562523
v 0.000000 3.825315 -0.562523
v 0.000000 3.825315 0.562523
v -1.000000 -0.313121 1.000000
v -0.562523 0.313121 0.562523
v -1.000000 -0.313121 -1.000000
v -0.562523 0.313121 -0.562523
v -2.316473 -0.313121 -2.316473
v -2.316473 0.313121 -2.316473
v -2.316473 -0.313121 2.316473
v -2.316473 0.313121 2.316473
v -1.000000 0.313121 -1.000000
v -1.000000 0.313121 1.000000
v -0.562523 3.825315 -0.562523
v -0.562523 3.825315 0.562523
vn -0.0000 1.0000 -0.0000
vn -0.0000 -1.0000 -0.0000
vn 1.0000 -0.0000 -0.0000
vn -0.0000 -0.0000 -1.0000
vn -0.0000 -0.0000 1.0000
vn -1.0000 -0.0000 -0.0000
vt 0.625000 0.500000
vt 0.625000 0.750000
vt 0.250000 0.750000
vt 0.375000 0.750000
vt 0.250000 0.500000
vt 0.375000 0.500000
vt 0.693501 0.681499
vt 0.693501 0.568501
vt 0.375000 0.375000
vt 0.625000 0.375000
vt 0.750000 0.500000
vt 0.750000 0.568501
vt 0.750000 0.681499
vt 0.625000 0.875000
vt 0.375000 0.875000
vt 0.750000 0.750000
s 0
f 77/12/23 78/13/23 76/13/23 74/12/23
f 83/14/24 69/15/24 75/15/24 87/14/24
f 81/16/24 71/17/24 69/15/24 83/14/24
f 70/18/25 72/19/25 79/19/25 80/18/25
f 85/20/26 86/21/26 74/12/26 73/17/26
f 73/17/25 74/12/25 76/13/25 75/15/25
f 69/15/24 71/17/24 73/17/24 75/15/24
f 82/22/23 77/12/23 74/12/23 86/22/23
f 89/23/23 72/19/23 77/12/23 82/22/23
f 72/19/23 70/18/23 78/13/23 77/12/23
f 90/24/27 70/18/27 80/18/27 92/24/27
f 72/19/26 89/23/26 91/23/26 79/19/26
f 75/15/27 76/13/27 88/25/27 87/26/27
f 78/13/23 84/27/23 88/27/23 76/13/23
f 70/18/23 90/24/23 84/27/23 78/13/23
f 71/17/24 81/16/24 85/16/24 73/17/24
f 101/12/23 98/12/23 100/13/23 102/13/23
f 83/14/24 87/14/24 99/15/24 93/15/24
f 81/16/24 83/14/24 93/15/24 95/17/24
f 94/18/28 104/18/28 103/19/28 96/19/28
f 85/20/26 97/17/26 98/12/26 86/21/26
f 97/17/28 99/15/28 100/13/28 98/12/28
f 93/15/24 99/15/24 97/17/24 95/17/24
f 82/22/23 86/22/23 98/12/23 101/12/23
f 89/23/23 82/22/23 101/12/23 96/19/23
f 96/19/23 101/12/23 102/13/23 94/18/23
f 90/24/27 92/24/27 104/18/27 94/18/27
f 96/19/26 103/19/26 91/23/26 89/23/26
f 99/15/27 87/26/27 88/25/27 100/13/27
f 102/13/23 100/13/23 88/27/23 84/27/23
f 94/18/23 102/13/23 84/27/23 90/24/23
f 95/17/24 97/17/24 85/16/24 81/16/24
